<svg width="48" height="48" viewBox="0 0 48 48" fill="none" xmlns="http://www.w3.org/2000/svg">
<path d="M17.4412 32.5219H30.3912C30.7637 32.5219 31.1209 32.3739 31.3843 32.1105C31.6477 31.8471 31.7957 31.4899 31.7957 31.1174L36.6864 13.2098C36.6864 13.0239 36.6495 12.8399 36.5779 12.6684C36.5063 12.4969 36.4013 12.3413 36.2691 12.2107C36.1369 12.08 35.9801 11.9769 35.8078 11.9073C35.6354 11.8378 35.451 11.8031 35.2652 11.8053H14.0385C13.6653 11.8053 13.3072 11.953 13.0424 12.2161C12.7777 12.4793 12.6279 12.8365 12.6257 13.2098L8.44556 31.1174C8.44556 31.4899 8.59353 31.8471 8.85693 32.1105C9.12033 32.3739 9.47757 32.5219 9.85007 32.5219H11.6726" stroke="black" stroke-width="2.7"/>
<path d="M34.1451 32.5237H31.2441L35.4243 18.0688H42.2964C42.3997 18.0686 42.5019 18.0909 42.5958 18.1343C42.6896 18.1776 42.7729 18.2408 42.8398 18.3197L45.8327 23.5866C45.94 23.7094 45.9994 23.8667 45.9999 24.0297L43.216 32.5237H40.2063" stroke="black" stroke-width="2.7"/>
<path d="M14.6239 36.576C16.3369 36.576 17.7255 35.1686 17.7255 33.4325C17.7255 31.6964 16.3369 30.2891 14.6239 30.2891C12.9109 30.2891 11.5222 31.6964 11.5222 33.4325C11.5222 35.1686 12.9109 36.576 14.6239 36.576Z" stroke="black" stroke-width="2.7"/>
<path d="M37.2301 36.576C38.9431 36.576 40.3317 35.1686 40.3317 33.4325C40.3317 31.6964 38.9431 30.2891 37.2301 30.2891C35.5171 30.2891 34.1284 31.6964 34.1284 33.4325C34.1284 35.1686 35.5171 36.576 37.2301 36.576Z" stroke="black" stroke-width="2.7"/>
<path d="M18.7539 15.9204H5.05981" stroke="black" stroke-width="2.7" stroke-linecap="round"/>
<path d="M16.0536 20.3032H6.38086" stroke="black" stroke-width="2.7" stroke-linecap="round"/>
<path d="M17.0317 25.2329H2" stroke="black" stroke-width="2.7" stroke-linecap="round"/>
</svg>
