<svg width="48" height="48" viewBox="0 0 48 48" fill="none" xmlns="http://www.w3.org/2000/svg">
<path d="M46.6974 24.2059C46.5535 24.1777 43.9707 23.678 40.505 23.4224C40.5218 23.104 40.5307 22.7835 40.5307 22.4608C40.5307 12.4913 32.4198 4.38037 22.4503 4.38037C12.4806 4.38037 4.3696 12.4913 4.3696 22.4608C4.3696 24.5628 4.73147 26.5814 5.39376 28.4595C3.08208 28.6541 1.40191 28.9791 1.30256 28.9987L0 29.2541L0.567322 30.4541C0.74222 30.8241 4.91146 39.5463 10.1336 42.1848C12.0182 43.1368 13.7808 43.6196 15.3726 43.6199C15.373 43.6199 15.3731 43.6199 15.3734 43.6199C17.7441 43.6199 19.6855 42.5489 20.9071 40.5874C22.5097 42.5023 24.7653 43.534 27.4345 43.534C29.5609 43.534 31.9249 42.8845 34.4608 41.6034C41.5205 38.0365 47.1945 26.1651 47.4327 25.6614L48 24.4614L46.6974 24.2059ZM37.3464 16.5816C36.6649 16.0237 35.8801 15.5015 34.9965 15.023C33.9029 14.4307 32.6931 13.9262 31.3982 13.5131C30.9851 12.218 30.4806 11.0081 29.8881 9.91434C29.4096 9.03085 28.8875 8.246 28.3294 7.56453C32.4384 9.19213 35.719 12.4728 37.3464 16.5816ZM38.3312 21.4276H32.6996C32.6403 19.528 32.4167 17.6833 32.0429 15.9464C35.3987 17.2577 37.7614 19.221 38.3312 21.4276ZM23.4834 6.57968C25.6902 7.1496 27.6535 9.51244 28.9649 12.8683C27.2279 12.4945 25.3833 12.271 23.4834 12.2116V6.57968ZM23.4834 14.2786C25.705 14.3551 27.8197 14.6759 29.7231 15.1879C30.2352 17.0914 30.5559 19.2061 30.6326 21.4275H23.4834V14.2786ZM23.4834 23.494H30.6326C30.6294 23.5852 30.6259 23.6765 30.622 23.7675C28.8989 24.0872 27.4097 24.5611 26.1681 25.1883C25.1767 25.6891 24.2816 26.2236 23.4834 26.7901V23.494ZM21.417 6.57968V12.2116C19.5173 12.271 17.6725 12.4945 15.9355 12.8683C17.2469 9.51244 19.2103 7.1496 21.417 6.57968ZM21.417 14.2786V21.4276H14.2678C14.3443 19.2062 14.6651 17.0914 15.1773 15.1879C17.0806 14.6759 19.1955 14.3552 21.417 14.2786ZM16.5709 7.56476C16.0128 8.24624 15.4907 9.03109 15.0122 9.91457C14.4198 11.0082 13.9153 12.2182 13.5022 13.5132C12.2071 13.9264 10.9974 14.4308 9.90357 15.0232C9.02008 15.5017 8.23523 16.0238 7.55376 16.5818C9.18136 12.4727 12.4619 9.19213 16.5709 7.56476ZM12.8575 15.9462C12.4837 17.6833 12.2601 19.5279 12.2008 21.4276H6.56902C7.13883 19.221 9.50167 17.2577 12.8575 15.9462ZM12.2008 23.494C12.2562 25.2659 12.454 26.9901 12.7836 28.6238C12.4297 28.5647 12.0633 28.5138 11.6844 28.4717C8.95614 27.1855 7.0698 25.4337 6.56902 23.494H12.2008ZM18.6404 40.1738C17.9551 40.93 16.9211 41.5533 15.3734 41.5533H15.3729C14.1076 41.5532 12.6584 41.1451 11.0654 40.3404C7.54938 38.5638 4.37742 33.2351 3.06929 30.8038C4.37221 30.6174 6.45771 30.3817 8.67135 30.3817C11.6182 30.3817 13.9121 30.7858 15.4895 31.5827C16.9108 32.3006 17.9985 33.1043 18.7446 33.9703C18.5962 35.4766 18.8835 37.0187 19.603 38.5305L9.15708 33.6396L18.6404 40.1738ZM17.2835 30.2053C17.0073 30.0456 16.7207 29.8896 16.4212 29.7383C15.9968 29.5238 15.5323 29.3347 15.0326 29.1685C14.6048 27.4149 14.337 25.498 14.2678 23.4938H21.417V28.5481C20.803 29.1845 20.2907 29.8524 19.8809 30.5505C18.9906 30.4734 18.1223 30.3572 17.2835 30.2053ZM33.529 39.7588C31.2848 40.8927 29.2342 41.4674 27.4345 41.4674C25.0335 41.4674 23.4787 40.442 22.4823 39.2473L36.8287 30.0578L21.563 37.8403C21.5599 37.8341 21.5565 37.8279 21.5534 37.8217C19.5106 33.7777 21.5323 29.8453 27.0999 27.0328C29.3224 25.91 32.5339 25.3406 36.6453 25.3406C40.0317 25.3406 43.2107 25.7407 44.9427 26.0053C43.3177 29.0968 38.7109 37.1408 33.529 39.7588Z" fill="black"/>
</svg>
