<svg width="48" height="48" viewBox="0 0 48 48" fill="none" xmlns="http://www.w3.org/2000/svg">
<path d="M27.5143 3.75732C27.8154 3.75734 28.0996 3.95526 28.2828 4.22998L28.2848 4.23193L33.2838 12.1128L35.3414 10.6333L35.3444 10.6304C35.6388 10.4341 36.0215 10.4417 36.3873 10.6245L36.402 10.6323L36.4137 10.6431C36.6826 10.9119 36.8807 11.2895 36.7828 11.6812L34.7262 20.7651L34.7252 20.7642C34.6288 21.2417 34.2431 21.5288 33.7711 21.5288H33.6744V21.5278L24.2467 20.4995L24.2369 20.4985V20.4966C23.7741 20.4038 23.4842 20.1217 23.3883 19.7388C23.3395 19.5437 23.3654 19.3292 23.4352 19.1431C23.5048 18.9576 23.6228 18.7882 23.7731 18.688L26.2614 17.0288L23.6569 13.0396L19.3707 19.6792C19.0807 20.1626 18.5019 20.252 18.0338 19.9712L18.0319 19.9702L12.1178 16.1987V16.1978C11.9722 16.1424 11.867 16.0381 11.8278 15.8813C11.7902 15.7311 11.8164 15.5477 11.8961 15.3374C11.817 15.055 11.9107 14.7837 11.9967 14.6118L12.0006 14.603H12.0016L18.7623 4.07568C18.7671 4.05065 18.7748 4.02656 18.7897 4.00537C18.8099 3.97653 18.8361 3.95747 18.8551 3.94482C18.8982 3.91612 18.9241 3.90508 18.9576 3.87158L18.9869 3.84229H19.0289C19.0435 3.84214 19.0639 3.83407 19.1119 3.81006C19.149 3.79153 19.2147 3.75732 19.2858 3.75732H27.5143ZM24.4264 10.6587L28.3688 16.6587L28.3717 16.6626L28.4196 16.7515C28.6387 17.2001 28.5334 17.7227 28.0846 17.9956L26.9362 18.7856L33.0934 19.4331L34.3805 13.7183L33.6637 14.3062L33.6627 14.3052C33.4711 14.4923 33.1855 14.5891 32.8951 14.4976C32.6008 14.4891 32.406 14.2896 32.2438 14.1274L32.236 14.1196L32.2301 14.1108L26.9449 5.75732H21.1862L24.4264 10.6587ZM13.9381 15.1401L18.2262 17.8608L22.4235 11.229L19.3717 6.61182L13.9381 15.1401Z" fill="black" stroke="black" stroke-width="0.2"/>
<path d="M24.7338 36.1704L28.6996 40.5386V39.5991C28.6997 39.403 28.7954 39.1205 28.9867 38.9292C29.0783 38.8376 29.1738 38.7645 29.2845 38.7153C29.3956 38.666 29.5166 38.6421 29.6566 38.6421H29.6615L39.4633 39.0679L42.7562 34.2935L36.8539 34.1284L29.7396 33.8706V33.8696C29.4611 33.8689 29.2208 33.7766 29.0502 33.606C28.879 33.4347 28.7855 33.1933 28.7855 32.9136V32.9087L28.8558 31.564L24.7338 36.1704ZM34.6722 25.0825L37.6097 32.3003L43.1342 32.4663L39.3724 23.187L34.6722 25.0825ZM45.5287 33.8706H45.4427V33.8882L45.4242 33.9146L40.7963 40.5142L40.7953 40.5132C40.5958 40.8106 40.2119 40.8999 39.9427 40.8999H39.9379L30.6166 40.4761L30.6996 43.0249V43.0278C30.6996 43.2556 30.6538 43.4471 30.556 43.606C30.4593 43.7629 30.3166 43.8799 30.1361 43.9712C30.0735 44.0237 29.9956 44.0483 29.931 44.0591C29.8575 44.0713 29.7848 44.0708 29.7426 44.0708C29.5464 44.0707 29.263 43.976 29.0717 43.7847L29.0687 43.7808L22.8109 36.8384V36.8374C22.6618 36.6855 22.5931 36.4662 22.5931 36.2456C22.5932 36.0223 22.6636 35.7871 22.806 35.5972L22.8109 35.5903L29.2396 28.3901C29.3775 28.2087 29.5433 28.0878 29.7279 28.0386C29.9154 27.9886 30.1122 28.0149 30.3021 28.1099C30.6834 28.3006 30.8715 28.682 30.8715 29.0571V29.0591L30.7875 32.1313L35.5062 32.2935L32.5638 24.894V24.8931C32.2821 24.4028 32.5812 23.837 33.0472 23.6499L39.476 20.9927L39.4828 20.9897V20.9907C39.7544 20.9002 40.041 20.894 40.2445 20.9956C40.3874 21.0671 40.5285 21.1902 40.6302 21.3276L40.7181 21.4692L40.7211 21.4761L45.4301 33.1196C45.5317 33.2342 45.5287 33.3592 45.5287 33.5142V33.8706Z" fill="black" stroke="black" stroke-width="0.2"/>
<path d="M13.2482 19.8789C13.4842 19.7845 13.7261 19.7823 13.9347 19.8682C14.142 19.9536 14.3101 20.1225 14.4054 20.3574L18.4327 29.0977L18.4913 29.2422C18.5979 29.5795 18.4902 29.9084 18.2423 30.1562C17.9592 30.4393 17.5711 30.5387 17.1847 30.3457L14.4464 29.0186L12.4132 33.3311L20.3165 33.5H20.3156C20.7983 33.5008 21.2722 33.9731 21.1857 34.5449L21.0148 41.4873C21.0145 41.6267 20.9907 41.7478 20.9415 41.8584C20.8923 41.969 20.8192 42.0647 20.7277 42.1562C20.6361 42.2477 20.5404 42.32 20.4298 42.3691C20.3186 42.4186 20.197 42.4424 20.0568 42.4424H20.0548L7.54016 42.0996V42.0986C7.43767 42.0982 7.36036 42.0732 7.30188 42.0498C7.27012 42.0371 7.2529 42.0287 7.23254 42.0215C7.2147 42.0152 7.20543 42.0137 7.20032 42.0137C7.125 42.0137 7.0604 41.9768 7.01184 41.9404C6.96226 41.9032 6.9137 41.855 6.87219 41.8135L6.8429 41.7842V41.6982L6.77844 41.6338L6.77161 41.623L2.57239 34.7656L2.56555 34.7559L2.56262 34.7451C2.47014 34.4675 2.4701 34.1028 2.56262 33.8252L2.56653 33.8125H2.56848L6.63391 25.4238L4.33508 24.5215L4.32629 24.5176C3.94521 24.3269 3.75707 23.9463 3.75696 23.5713C3.75696 23.1838 4.04423 22.7993 4.43274 22.7021L13.2482 19.8789ZM9.06946 40.1904L19.1866 40.5244L19.2697 35.4102L11.462 35.1582L9.06946 40.1904ZM7.41028 23.6631L8.25989 23.9902C8.54689 24.0859 8.74234 24.2814 8.83801 24.5684C8.92824 24.8394 8.93312 25.1248 8.83215 25.3281L4.57043 34.1084L7.53137 39.043L10.0236 33.7285L10.0245 33.7275L13.1095 27.2988H13.1105C13.2961 26.8456 13.8121 26.6577 14.2618 26.79L14.3517 26.8213L14.3566 26.8232L15.5646 27.3916L12.9747 21.8086L7.41028 23.6631Z" fill="black" stroke="black" stroke-width="0.2"/>
</svg>
