<svg width="48" height="48" viewBox="0 0 48 48" fill="none" xmlns="http://www.w3.org/2000/svg">
<path d="M20.5787 7.16603C21.8582 5.61263 24.2319 5.61263 25.5114 7.16603L27.431 9.49644C28.108 10.3182 29.1476 10.7492 30.2054 10.6466L33.2098 10.3551C35.2143 10.1606 36.8974 11.8499 36.7019 13.8604L36.4132 16.8312C36.3096 17.8973 36.7432 18.9451 37.5691 19.6242L39.874 21.5194C41.4354 22.8031 41.4354 25.1988 39.874 26.4825L37.5691 28.3777C36.7432 29.0569 36.3096 30.1046 36.4132 31.1707L36.7019 34.1415C36.8974 36.1519 35.2143 37.8414 33.2098 37.6468L30.2054 37.3554C29.1476 37.2527 28.108 37.6837 27.431 38.5054L25.5114 40.8359C24.2319 42.3893 21.8582 42.3893 20.5787 40.8359L18.6591 38.5054C17.9822 37.6837 16.9426 37.2527 15.8847 37.3554L12.8804 37.6468C10.8758 37.8414 9.19277 36.1519 9.38819 34.1415L9.67696 31.1707C9.7806 30.1046 9.34697 29.0569 8.521 28.3777L6.2161 26.4825C4.65469 25.1988 4.65469 22.8031 6.2161 21.5194L8.521 19.6242C9.34697 18.9451 9.7806 17.8973 9.67696 16.8312L9.38819 13.8604C9.19277 11.8499 10.8758 10.1606 12.8804 10.3551L15.8847 10.6466C16.9426 10.7492 17.9822 10.3182 18.6591 9.49644L20.5787 7.16603Z" stroke="black" stroke-width="2.7"/>
<path d="M17.045 24.9137L20.5858 28.5374C21.2514 29.2185 22.3492 29.1384 22.9141 28.3673L29.045 20.001" stroke="black" stroke-width="2.7" stroke-linecap="round"/>
</svg>
